# xmcd
#
# Track frame offsets:
#	150
#	21037
#	38474
#	62236
#	79554
#	99769
#	117310
#	136828
#	150555
#	170547
#	190710
#	210451
#	229440
#	248760
#	269982
#	294627
#	315105
#	336322
#
# Disc length: 4748 seconds
#
# Revision: 0
# Processed by: cddbd v1.5.1PL2 Copyright (c) Steve Scherf et al.
# Submitted via: EasyCDDAExtractor 8.1.2.3
#
DISCID=f1128a12
DTITLE=Ghetto fabolous gang - Gangsters avec de grands boubous
DYEAR=2005
DGENRE=Rap
TTITLE0=Pop mon hood
TTITLE1=Que puis-je te dire
TTITLE2=Chair de ma chair
TTITLE3=tous les quartiers (feat. k fear)
TTITLE4=Independance day
TTITLE5=Sans_precedent
TTITLE6=Quand les puces vendent plus que la fnac
TTITLE7=Gangsta_gangsta
TTITLE8=Hymne (feat. 93 etendard)
TTITLE9=Si_on_meurt
TTITLE10=Dribe by music (feat. ol'kainry)
TTITLE11=Enleve tes pessas (feat.roll k)
TTITLE12=regrets
TTITLE13=Gaz lacrymogene (feat. iron sy and Sinik)
TTITLE14=Hematomes
TTITLE15=c le ghetto
TTITLE16=explosion
TTITLE17=tout l'amour que j'ai
EXTD=
EXTT0=
EXTT1=
EXTT2=
EXTT3=
EXTT4=
EXTT5=
EXTT6=
EXTT7=
EXTT8=
EXTT9=
EXTT10=
EXTT11=
EXTT12=
EXTT13=
EXTT14=
EXTT15=
EXTT16=
EXTT17=
PLAYORDER=
